/* XPM */
static char *xpmdata[] =
{
/* width height ncolors chars_per_pixel */
"18 18 16 1",
/* colors */
"A c #FFFFFFFFFFFF",
"B c #00000000DEF7",
"C c #0000BDEF0000",
"D c #DEF700000000",
"E c #FFFF00009CE7",
"F c #FFFF63180000",
"G c #FFFFFFFF0000",
"H c #000000000000",
"I c #000000000000",
"J c #000000000000",
"K c #000000000000",
"L c #000000000000",
"M c #000000000000",
"N c #000000000000",
"O c #000000000000",
"P c #000000000000",
/* pixels */
"AAAAAAAAAAAAAAAAAA",
"AAAAAAAAAAAAAAAAAA",
"AAAAAAAAAACCAAAAAA",
"AAAAAAAAACCAAAAAAA",
"AAAAAAAAACAAAAAAAA",
"AAAAACCCAACCCAAAAA",
"AAAACCCCCCCCCCAAAA",
"AAAGGGGGGGGGAAAAAA",
"AAAGGGGGGGGGAAAAAA",
"AAAFFFFFFFFFAAAAAA",
"AAAFFFFFFFFFFAAAAA",
"AAADDDDDDDDDDDAAAA",
"AAAAEEEEEEEEEEAAAA",
"AAAAEEEEEEEEEEAAAA",
"AAAAABBBBBBBBAAAAA",
"AAAAAABBAABBAAAAAA",
"AAAAAAAAAAAAAAAAAA",
"AAAAAAAAAAAAAAAAAA",
};
