/* XPM */
static char *xpmdata[] =
{
/* width height ncolors chars_per_pixel */
"18 18 16 1",
/* colors */
"A c #FFFFFFFFFFFF",
"B c #FFFFFFFFFFFF",
"C c #FFFFFFFFFFFF",
"D c #FFFFFFFFFFFF",
"E c #CECECECEFFFF",
"F c #CECECECEFFFF",
"G c #CECECECEFFFF",
"H c #CECECECEFFFF",
"I c #8C8C8C8C8C8C",
"J c #8C8C8C8C8C8C",
"K c #8C8C8C8C8C8C",
"L c #000000000000",
"M c #000000000000",
"N c #000000000000",
"O c #000000000000",
"P c #000000000000",
/* pixels */
"AAAAAAAAAAAAAAAAAA",
"AAAPPPPPPPPPPPPAAA",
"AAPEEEEEEEEEEEIPAA",
"APEEAAAPPPPAAEEIPA",
"APEAAAPPAAPPAAEIPA",
"APEAAAPPAAPPAAEIPA",
"APEAAAAAAPPAAAEIPA",
"APEAAAAAPPAAAAEIPA",
"APEAAAAAPPAAAAEIPA",
"APEAAAAAAAAAAAEIPA",
"APEAAAAAPPAAAEEIPA",
"APEEAAAAPPAEEEIIPA",
"AAPEEEEEEEEEIIIPAA",
"AAAPEIPPPPPPPPPAAA",
"AAAPIPAAAAAAAAAAAA",
"AAAPPAAAAAAAAAAAAA",
"AAAPAAAAAAAAAAAAAA",
"AAAAAAAAAAAAAAAAAA",
};
