/* XPM */
static char *clementine[] = {
/* columns rows colors chars-per-pixel */
"16 16 91 1 ",
"  c #FD9147",
". c #FE9146",
"X c #FD9248",
"o c #FE934B",
"O c #FD944A",
"+ c #FD944B",
"@ c #FD944C",
"# c #FD954D",
"$ c #FD964D",
"% c #FD964F",
"& c #FD974F",
"* c #FD9750",
"= c #FD9751",
"- c #FD9850",
"; c #FD9852",
": c #FD9853",
"> c #FD9953",
", c #FD9954",
"< c #FD9A55",
"1 c #FD9B56",
"2 c #FD9A57",
"3 c #FD9B57",
"4 c #FD9C59",
"5 c #FD9D5A",
"6 c #FD9E5C",
"7 c #FD9E5D",
"8 c #FD9F5D",
"9 c #FD9E5E",
"0 c #FD9F5E",
"q c #FDA060",
"w c #FDA161",
"e c #FDA262",
"r c #FDA263",
"t c #FDA264",
"y c #FDA364",
"u c #FDA365",
"i c #FDA764",
"p c #FDA466",
"a c #FDA567",
"s c #FCA864",
"d c #FDA864",
"f c #FDA964",
"g c #FDA865",
"h c #FEA864",
"j c #FEA865",
"k c #FDA568",
"l c #FDA669",
"z c #FDA66A",
"x c #FDA86C",
"c c #FDA86D",
"v c #FDA96F",
"b c #FDAC6C",
"n c #FDAD6C",
"m c #FDAE6F",
"M c #FDAA70",
"N c #FDAB73",
"B c #FEAB72",
"V c #FDAC73",
"C c #FDAD74",
"Z c #FDAD76",
"A c #FDAE76",
"S c #FDAE77",
"D c #FEAF76",
"F c #FDB073",
"G c #FDB277",
"H c #FDB17C",
"J c #FDB37E",
"K c #FDB27F",
"L c #FDB37F",
"P c #FDB684",
"I c #FEB786",
"U c #FEB887",
"Y c #FDBA86",
"T c #FEB888",
"R c #FEBE8D",
"E c #FEBC8F",
"W c #FEBE91",
"Q c #FEC297",
"! c #FEC299",
"~ c #FEC39B",
"^ c #FEC59A",
"/ c #FEC69A",
"( c #FEC69B",
") c #FEC79E",
"_ c #FEC79F",
"` c #FEC7A0",
"' c #FEC8A0",
"] c #FEC9A1",
"[ c #FEC9A3",
"{ c #FECAA3",
"} c None",
/* pixels */
"}}}}}}}}}}}}}}}}",
"}}B.}}}}}}}}}}}}",
"}{-=&}}}}}}}}}}}",
"}`=&&7}}}}}}}}}}",
"g)&o7z}}}}}}}}}}",
"g)--wvK}}}}}}}}}",
"g/<3wBKW}}}}}}}}",
"}YZ<tZPE~~}}}}}}",
"}bQ<qzZPPTKF}}}}",
"}y/w6tBSZKvy7-}}",
"}gb{-6wwzxw6<=o}",
"}}gG)<6<666&=O-o",
"}}}gF/Qy&&&o=<t}",
"}}}}fgbR){){{{}}",
"}}}}}}}gggyg}}}}",
"}}}}}}}}}}}}}}}}"
};
