/* XPM */
static char *xpmdata[] =
{
/* width height ncolors chars_per_pixel */
"18 18 16 1",
/* colors */
"A c #FFFFFFFFFFFF",
"B c #0000BDEF0000",
"C c #210821082108",
"D c #421042104210",
"E c #739C739C739C",
"F c #CE73CE73CE73",
"G c #CE73CE73FFFF",
"H c #DEF700000000",
"I c #000000000000",
"J c #000000000000",
"K c #000000000000",
"L c #000000000000",
"M c #000000000000",
"N c #000000000000",
"O c #000000000000",
"P c #000000000000",
/* pixels */
"AAAAAAAAAAAAAAAAAA",
"AAAAAAAAAAAAAAAAAA",
"AAAAPPPPPPPPPPAAAA",
"AAAPFFFFFFFFFFPAAA",
"AAAPFDDDDDDDDFPAAA",
"AAAPFDGGGGGGAFPAAA",
"AAAPFDGGGGGGAFPAAA",
"AAAPFDGGGGGGAFPAAA",
"AAAPFDGGGGGGAFPAAA",
"AAAPFDGGGGGGAFPAAA",
"AAAPFEAAAAAAAFPAAA",
"AAAPFFFFFFFFFFPAAA",
"AAAPFBFFFFFFFFPAAA",
"AAAPFHFFFPPPPFPAAA",
"AAAPFFFFFFFFFFPAAA",
"AAAACCCCCCPPPPAAAA",
"AAAAPPPPPPPPPPAAAA",
"AAAAAAAAAAAAAAAAAA",
};
