/* XPM */
static char *handbrake[] = {
/* columns rows colors chars-per-pixel */
"16 16 145 2 ",
"   c #0D1103",
".  c #160211",
"X  c #261C09",
"o  c #023516",
"O  c #2C210E",
"+  c #362910",
"@  c #32311E",
"#  c #190E2A",
"$  c #3B2726",
"%  c #353637",
"&  c #571002",
"*  c #4E0017",
"=  c #6F0505",
"-  c #661700",
";  c #741B05",
":  c #6E0D14",
">  c #43230E",
",  c #4E380E",
"<  c #593E0D",
"1  c #513C18",
"2  c #533D1C",
"3  c #055C01",
"4  c #004517",
"5  c #064819",
"6  c #024C19",
"7  c #00491E",
"8  c #244C01",
"9  c #007300",
"0  c #047800",
"q  c #005C21",
"w  c #005D25",
"e  c #2A4D23",
"r  c #276725",
"t  c #464E0F",
"y  c #54401B",
"u  c #5A441D",
"i  c #6B590D",
"p  c #60471A",
"a  c #614919",
"s  c #61491D",
"d  c #7B5C1D",
"f  c #5D4B24",
"g  c #614F21",
"h  c #6B532C",
"j  c #705521",
"k  c #715424",
"l  c #765A24",
"z  c #755826",
"x  c #7F5F20",
"c  c #7E5E23",
"v  c #7A5B27",
"b  c #7B5D24",
"n  c #7C5E27",
"m  c #715728",
"M  c #755928",
"N  c #785D2A",
"B  c #7F6229",
"V  c #7F622B",
"C  c #7C682E",
"Z  c #746F33",
"A  c #7D6A37",
"S  c #140849",
"D  c #53295A",
"F  c #4E4B46",
"G  c #4D4D4E",
"H  c #4C4F53",
"J  c #555555",
"K  c #5D5C5C",
"L  c #674147",
"P  c #615F5A",
"I  c #6D6741",
"U  c #7B6D57",
"Y  c #696A6B",
"T  c #6C6F7E",
"R  c #707071",
"E  c #747473",
"W  c #777777",
"Q  c #870200",
"!  c #8C060E",
"~  c #B20D01",
"^  c #A4100C",
"/  c #973813",
"(  c #AF3838",
")  c #C31F15",
"_  c #C52C1F",
"`  c #86621F",
"'  c #825E22",
"]  c #806126",
"[  c #826227",
"{  c #8A6620",
"}  c #896625",
"|  c #8E6A23",
" . c #8B6824",
".. c #8C6824",
"X. c #806228",
"o. c #816328",
"O. c #826328",
"+. c #80642A",
"@. c #87662A",
"#. c #896828",
"$. c #8C6A2A",
"%. c #88682C",
"&. c #906D2B",
"*. c #926F2C",
"=. c #93702B",
"-. c #947029",
";. c #93722D",
":. c #91712E",
">. c #866931",
",. c #926F35",
"<. c #927332",
"1. c #967633",
"2. c #987630",
"3. c #9B7630",
"4. c #9F7530",
"5. c #9D7A30",
"6. c #9F7A33",
"7. c #A07034",
"8. c #AB7A30",
"9. c #B21B4E",
"0. c #83725D",
"q. c #AD7D50",
"w. c #B36A63",
"e. c #0D8C32",
"r. c #059031",
"t. c #049A30",
"y. c #149A33",
"u. c #54803A",
"i. c #9F8501",
"p. c #9F8B1C",
"a. c #B59011",
"s. c #A7932D",
"d. c #C5AB1E",
"f. c #FF9C22",
"g. c #FF8130",
"h. c #FF9835",
"j. c #FFA632",
"k. c #A0885B",
"l. c #D5A654",
"z. c #C48968",
"x. c #DE9B66",
"c. c #F38161",
"v. c #979384",
"b. c #A6A6A5",
"n. c None",
/* pixels */
"n.n.9.n.n.n.n.n.n.n.n.n.n.n.n.n.",
"n.n.D n.n.n.3 8 n.n.n.n.n.n.n.n.",
"n.U v.0.n.n.0 9 n.n.n.6 q w o n.",
"n.n./ - n.n.i f n.n.n.4 e.y.5 n.",
"n.n.. # n.  t @ i.n.n.r r.t.7 n.",
"n.$ L S : < > I & n.;.8.Z u.e n.",
"n.w.( * ! ; = q.k.h 3.5.4.7.,.n.",
"n.z.c.~ ^ _ ) Q C A v 6.2.1.>.n.",
"n.n.l.h.g.f.j.x.a m $.=.:.&.<.n.",
"n.n.n.s.a.d.p.g n ] {  .-.| } n.",
"n.n.n.n.n.T n.2 @.+...X.b ` d n.",
"n.n.n.n.n.P n.u c *.%.B x #.j n.",
"n.n.n.n.n.E n., ' z N O.[ o.n.n.",
"n.n.n.% R b.Y F p M k l V + n.n.",
"n.n.n.G W J K H X s y 1 O n.n.n.",
"n.n.n.n.n.n.n.n.n.n.n.n.n.n.n.n."
};
