/* XPM */
static char *meld[] = {
/* columns rows colors chars-per-pixel */
"16 16 152 2 ",
"   c #7F6256",
".  c #B95300",
"X  c #BA5300",
"o  c #C75900",
"O  c #CE5C00",
"+  c #CD5F05",
"@  c #C75F0B",
"#  c #C85E09",
"$  c #CE630A",
"%  c #C9600C",
"&  c #C8610D",
"*  c #CB610D",
"=  c #CF660F",
"-  c #D96805",
";  c #C96311",
":  c #EC7705",
">  c #F07D0A",
",  c #C46B24",
"<  c #A86E44",
"1  c #B57F56",
"2  c #BC7F51",
"3  c #F6830C",
"4  c #F68712",
"5  c #F78812",
"6  c #F78C17",
"7  c #F78E19",
"8  c #F8911D",
"9  c #F8931F",
"0  c #F99522",
"q  c #F99725",
"w  c #F79828",
"e  c #F69B2C",
"r  c #F9A136",
"t  c #FBA636",
"y  c #F6A53A",
"u  c #FCAA3C",
"i  c #E89F55",
"p  c #F4A542",
"a  c #FCAF42",
"s  c #FCB043",
"d  c #FDB44B",
"f  c #EDA556",
"g  c #FBB35B",
"h  c #C4946F",
"j  c #D39665",
"k  c #F0AF68",
"l  c #F5B361",
"z  c #F8BA66",
"x  c #E1A87A",
"c  c #FCBF71",
"v  c #FABB7A",
"b  c #2F5B93",
"n  c #305C93",
"m  c #3665A1",
"M  c #3465A4",
"N  c #4570A7",
"B  c #5176A5",
"V  c #5877A4",
"C  c #4B78B2",
"Z  c #5A82B5",
"A  c #5D85B7",
"S  c #6188B9",
"D  c #7796BE",
"F  c #7D97BC",
"G  c #7C9EC7",
"H  c #759BCA",
"J  c #779DCC",
"K  c #7AA0CE",
"L  c #9D9393",
"P  c #A68F83",
"I  c #9BA7BB",
"U  c #A7A0A3",
"Y  c #A7A8B3",
"T  c #D0B098",
"R  c #CEB3A0",
"E  c #C0BDBE",
"W  c #FAC583",
"Q  c #FDCA87",
"!  c #F1CCAA",
"~  c #F3CDAC",
"^  c #F7D1A9",
"/  c #F7D3AC",
"(  c #FAD5AE",
")  c #F1CFB0",
"_  c #FCD8B0",
"`  c #FCD9B1",
"'  c #FCD9B2",
"]  c #FCDAB3",
"[  c #FCDBB4",
"{  c #FDDDB6",
"}  c #FBDEBA",
"|  c #FCDEB8",
" . c #FDDEB8",
".. c #FDE0BA",
"X. c #FDE2BC",
"o. c #809DC3",
"O. c #84A1C8",
"+. c #87A7CE",
"@. c #9CAFC9",
"#. c #9FB3CF",
"$. c #87ABD7",
"%. c #8BACD5",
"&. c #8AADD6",
"*. c #8CAFD9",
"=. c #8DB0DC",
"-. c #90B2DB",
";. c #90B3DD",
":. c #95B6DF",
">. c #99B7DA",
",. c #9BBADF",
"<. c #A4B3CA",
"1. c #ABBCD1",
"2. c #97B9E2",
"3. c #9BBCE2",
"4. c #9BBCE3",
"5. c #9DBEE5",
"6. c #9FBFE5",
"7. c #AFC2D9",
"8. c #B0C0D6",
"9. c #B3C6DD",
"0. c #B5C5DC",
"q. c #B7C8DF",
"w. c #A7C5E5",
"e. c #A1C1E8",
"r. c #B5CBE5",
"t. c #BBCDE3",
"y. c #BFCEE1",
"u. c #B4CDE8",
"i. c #C7C5C7",
"p. c #CAD2DE",
"a. c #EBD6C5",
"s. c #FDE4C6",
"d. c #FDE9CD",
"f. c #F6E3D3",
"g. c #FDEDD6",
"h. c #FBEBD9",
"j. c #FEEFDB",
"k. c #FEF0DC",
"l. c #C0CFE1",
"z. c #C1D2E5",
"x. c #C0D3E8",
"c. c #C0D4E9",
"v. c #C8DAEC",
"b. c #C9DAEC",
"n. c #D4E1F0",
"m. c #D9E4F0",
"M. c #DBE5F1",
"N. c #E9EFF6",
"B. c #EDF3F9",
"V. c #EEF3F9",
"C. c #EEF4F9",
"Z. c None",
/* pixels */
"O O O O O O O O M M M M M A q.Z.",
"O j.k.k.h.f.v V.C.C.C.C.B.M.S q.",
"O g.Q W k 3 v.v.v.v.v.v.b.n.m.A ",
"O d.c i $ c.c.z.R $ $ $ T i.N.M ",
"O s.g $ E u.r.j $ f z l $ $ a.m ",
"O | r = 1.w.h $ $ $ $ p d s )   ",
"O ] 0 $ #.,.$ $ >.6.Y $ y a } @ ",
"O ` 8 $ U 3.$ $ ; P e.1 $ u X.O ",
"# ( 6 $ 2 4.<.@.% , 5.I $ t ..O ",
"O ~ 5 4 $ L &.%.G * :.-.$ e  .O ",
"V v 5 3 > $ $ $ $ $ *.*.$ w { O ",
"C p.3 3 3 3 : - & O.2.F $ q [ O ",
"M x.D $ $ $ $ < o.;.K + 9 9 ' O ",
"Z 9.+.J H H H =.$.H % 7 7 7 _ O ",
"0.N 7.y.l.l.l.l.t.x x ! / / ^ o ",
"Z.8.B b b b n n . . . . . . . X "
};
