/* XPM */
static const char *remmina[] = {
/* columns rows colors chars-per-pixel */
"16 16 137 2 ",
"   c #595957",
".  c #5C5A58",
"X  c #5E5E5B",
"o  c #5E5E5D",
"O  c #646360",
"+  c #656363",
"@  c #646461",
"#  c #646462",
"$  c #656562",
"%  c #646463",
"&  c #656565",
"*  c #666565",
"=  c #666664",
"-  c #686665",
";  c #6B6969",
":  c #737170",
">  c #737370",
",  c #777572",
"<  c #767473",
"1  c #777575",
"2  c #777775",
"3  c #777777",
"4  c #2AAE79",
"5  c #2BAE79",
"6  c #2EAE7B",
"7  c #2EAF7B",
"8  c #2FAF7C",
"9  c #32B07D",
"0  c #33B17F",
"q  c #3BB483",
"w  c #58BE94",
"e  c #59BE94",
"r  c #59BF95",
"t  c #5ABE95",
"y  c #5FC099",
"u  c #79C8A6",
"i  c #5197DD",
"p  c #5297DE",
"a  c #5298DD",
"s  c #5398DE",
"d  c #5599DE",
"f  c #609FDF",
"g  c #5D9EE0",
"h  c #74AAE1",
"j  c #74ABE1",
"k  c #75ABE1",
"l  c #77ACE1",
"z  c #78ADE2",
"x  c #95938F",
"c  c #959391",
"v  c #979794",
"b  c #989794",
"n  c #88CFB1",
"m  c #8AD0B2",
"M  c #8DD0B2",
"N  c #95BEE6",
"B  c #9ABFE4",
"V  c #A1D5C6",
"C  c #A8D9C2",
"Z  c #A8DAC3",
"A  c #A8DAC4",
"S  c #AADBC5",
"D  c #B2DCC9",
"F  c #AFD6D1",
"G  c #BBE1CF",
"H  c #BAE1D0",
"J  c #9DC2E6",
"K  c #A0C4E7",
"L  c #AECEE2",
"P  c #AFD0E0",
"I  c #B7D0E7",
"U  c #B8D1E7",
"Y  c #B8D2EA",
"T  c #C6C5C0",
"R  c #C8C6C3",
"E  c #CACAC6",
"W  c #CAC9C8",
"Q  c #CCCBCA",
"!  c #D0D0CC",
"~  c #D1D0CC",
"^  c #C2DED5",
"/  c #CAE4D5",
"(  c #CBE4D5",
")  c #D0E5D8",
"_  c #E5E4DE",
"`  c #C0D5E6",
"'  c #C1D5E7",
"]  c #C3D7E8",
"[  c #CEDFEE",
"{  c #D0E4E4",
"}  c #D2E0EC",
"|  c #D5E2ED",
" . c #E7E6E2",
".. c #E8E6E2",
"X. c #E0EDE4",
"o. c #E4EEE6",
"O. c #E9E8E5",
"+. c #EBEAE5",
"@. c #EBEAE7",
"#. c #ECEBE7",
"$. c #EDECE5",
"%. c #E4EAEB",
"&. c #E6EBEB",
"*. c #E5E9EC",
"=. c #E6EAED",
"-. c #E5EAEE",
";. c #ECEAE9",
":. c #EFEEE8",
">. c #F0EFE9",
",. c #F0EEEA",
"<. c #E5F0E6",
"1. c #E4F0E7",
"2. c #E5F0E8",
"3. c #EDF1EC",
"4. c #EFF1EE",
"5. c #F1F0EB",
"6. c #F0F1EB",
"7. c #F2F0EC",
"8. c #F1F2EC",
"9. c #F3F1EE",
"0. c #F3F2EE",
"q. c #F4F3ED",
"w. c #F4F3EE",
"e. c #F4F2EF",
"r. c #F4F3EF",
"t. c #E4EBF0",
"y. c #F0F2F1",
"u. c #F4F3F0",
"i. c #F4F3F1",
"p. c #F6F4F1",
"a. c #F7F5F1",
"s. c #F6F5F3",
"d. c #F7F5F3",
"f. c #F7F6F2",
"g. c #F8F6F2",
"h. c #F8F6F3",
"j. c None",
/* pixels */
"j.j.j.j.j.j.j.j.j.j.j.j.j.j.j.j.",
"j.j.j.j.j.j.X % % o j.j.j.j.j.j.",
"j.j.j.j., ! +.0.0.#.! , j.j.j.j.",
"j.j.j.x $.` h i a l ] :.c j.j.j.",
"j.j.> $.B f U %.-.I f J >.> j.j.",
"j.j.T ` f ^ ) q.q.q.-.P ( R j.j.",
"j.  _ h U ( 9 M 0.q.3.Z r  .. j.",
"j.O >.i %.6.u 7 F h } X.8 q.% j.",
"j.% 6.d -.D y L a K s.o.4 q.- j.",
"j.O ..z Y 3.s.y.N g t.Z r +.& j.",
"j.j.E | V 1.s.g.g.[ { 9 H W j.j.",
"j.j.1 0.n q S 1.2.S 9 m i.1 j.j.",
"j.j.j.v 0.G r 7 4 r H i.b j.j.j.",
"j.j.j.j.1 Q +.s.s.;.Q 1 j.j.j.j.",
"j.j.j.j.j.j.& ; ; & j.j.j.j.j.j.",
"j.j.j.j.j.j.j.j.j.j.j.j.j.j.j.j."
};
