/* XPM */
static const char *xarchiver[] = {
/* columns rows colors chars-per-pixel */
"16 16 63 1 ",
"  c #5F615D",
". c #5F625D",
"X c #60625E",
"o c #61635F",
"O c #66655F",
"+ c #626460",
"@ c #636560",
"# c #636660",
"$ c #646662",
"% c #646762",
"& c #686A66",
"* c #BA5300",
"= c #BB5400",
"- c #BB5401",
"; c #BC5400",
": c #BC5500",
"> c #BD5500",
", c #BC5501",
"< c #BD5501",
"1 c #BD5601",
"2 c #BD5502",
"3 c #BD5602",
"4 c #BD5702",
"5 c #BD5703",
"6 c #945B2A",
"7 c #C05E0C",
"8 c #C46008",
"9 c #C66411",
"0 c #C26314",
"q c #CF731E",
"w c #E77D12",
"e c #C97229",
"r c #CC7830",
"t c #E2872C",
"y c #EB9337",
"u c #F89F3E",
"i c #DF9045",
"p c #DF9854",
"a c #DB9558",
"s c #ED9C47",
"d c #E1974C",
"f c #F8A343",
"g c #EFA555",
"h c #F9AB50",
"j c #FAB25F",
"k c #E4A462",
"l c #F7B365",
"z c #F5B76F",
"x c #F1B572",
"c c #FBC27D",
"v c #979993",
"b c #9C9E98",
"n c #AEB1AA",
"m c #B5B9B1",
"M c #B7BAB3",
"N c #BABDB6",
"B c #FAC783",
"V c #F4C28C",
"C c #F5C28E",
"Z c #FBC789",
"A c #FBCC91",
"S c #F6CA9B",
"D c None",
/* pixels */
"$   $DDDDDDDDDDD",
" MNM DDDDDDDDDDD",
"$@ @$DDDDDDDDDDD",
"D M DDDDDDDDDDDD",
"D$ $DDDDDDDDDDDD",
"D M @   DDDDDDDD",
"$@ @vNNb$DDD=**4",
"XnNn&   XDD0Vi4D",
"$@ @D4**=4rSa4DD",
"D M DD8BxpVe4DDD",
"D$ $DD4dAZ9*DDDD",
"D M DD4kzcg4DDDD",
"$@ @D4*=7ljs4DDD",
"XnNn&   6qhfy4DD",
"$   vNNbO4tfuw4D",
"DDDD@   DD=****4"
};
